# xmcd CD database file
#
# Track frame offsets:
#	150
#	55889
#	128271
#	161192
#	216406
#
# Disc length: 3377 seconds
#
# Revision: 0
# Processed by: cddbd v1.5.2PL0 Copyright (c) Steve Scherf et al.
# Submitted via: CDex 1.51
#
DISCID=420d2f05
DTITLE=Nils Wogram and the NDR Bigband - Portrait of a Band
DYEAR=2006
DGENRE=Jazz
TTITLE0=Hogwarts
TTITLE1=Portrait of a band
TTITLE2=You're my everything
TTITLE3=Recycle or die
TTITLE4=Thinking of air
EXTD=YEAR: 2006
EXTT0=
EXTT1=
EXTT2=
EXTT3=
EXTT4=
PLAYORDER=
